<svg width="48" height="48" viewBox="0 0 48 48" fill="none" xmlns="http://www.w3.org/2000/svg">
<g filter="url(#filter0_i_217_498)">
<circle cx="24.5" cy="23.5" r="19.5" fill="#EB4F24"/>
</g>
<circle cx="24.5" cy="23.5" r="18.2812" stroke="#13A53D" stroke-width="2.4375"/>
<g filter="url(#filter1_d_217_498)">
<path d="M18.8125 23.5C18.8125 23.7337 18.9122 23.9675 19.1016 24.1264L27.0073 31.3726C27.1768 31.5315 27.3961 31.625 27.6453 31.625C28.1637 31.625 28.5625 31.251 28.5625 30.7648C28.5625 30.5404 28.4628 30.316 28.3033 30.1571L21.0456 23.5L28.3033 16.8429C28.4628 16.684 28.5625 16.4689 28.5625 16.2352C28.5625 15.749 28.1637 15.375 27.6453 15.375C27.3961 15.375 27.1768 15.4685 26.9973 15.6274L19.1016 22.8736C18.9122 23.0512 18.8125 23.2569 18.8125 23.5Z" fill="#E8E8E8"/>
</g>
<defs>
<filter id="filter0_i_217_498" x="5" y="4" width="39" height="39" filterUnits="userSpaceOnUse" color-interpolation-filters="sRGB">
<feFlood flood-opacity="0" result="BackgroundImageFix"/>
<feBlend mode="normal" in="SourceGraphic" in2="BackgroundImageFix" result="shape"/>
<feColorMatrix in="SourceAlpha" type="matrix" values="0 0 0 0 0 0 0 0 0 0 0 0 0 0 0 0 0 0 127 0" result="hardAlpha"/>
<feMorphology radius="3.25" operator="erode" in="SourceAlpha" result="effect1_innerShadow_217_498"/>
<feOffset/>
<feGaussianBlur stdDeviation="0.40625"/>
<feComposite in2="hardAlpha" operator="arithmetic" k2="-1" k3="1"/>
<feColorMatrix type="matrix" values="0 0 0 0 0 0 0 0 0 0 0 0 0 0 0 0 0 0 0.25 0"/>
<feBlend mode="normal" in2="shape" result="effect1_innerShadow_217_498"/>
</filter>
<filter id="filter1_d_217_498" x="17.1875" y="15.375" width="13" height="19.5" filterUnits="userSpaceOnUse" color-interpolation-filters="sRGB">
<feFlood flood-opacity="0" result="BackgroundImageFix"/>
<feColorMatrix in="SourceAlpha" type="matrix" values="0 0 0 0 0 0 0 0 0 0 0 0 0 0 0 0 0 0 127 0" result="hardAlpha"/>
<feOffset dy="1.625"/>
<feGaussianBlur stdDeviation="0.8125"/>
<feComposite in2="hardAlpha" operator="out"/>
<feColorMatrix type="matrix" values="0 0 0 0 0 0 0 0 0 0 0 0 0 0 0 0 0 0 0.25 0"/>
<feBlend mode="normal" in2="BackgroundImageFix" result="effect1_dropShadow_217_498"/>
<feBlend mode="normal" in="SourceGraphic" in2="effect1_dropShadow_217_498" result="shape"/>
</filter>
</defs>
</svg>
