<svg width="25" height="42" viewBox="0 0 25 42" fill="none" xmlns="http://www.w3.org/2000/svg">
<path d="M23.9355 21.0007L4.0645 5.00002C4.0645 5.00002 2.40744 15.0189 2.00005 21.5C1.58554 28.0944 2.5645 38.5 2.5645 38.5L23.9355 21.0007Z" fill="#F8F8F8"/>
<path d="M24.5177 21.3113C24.533 20.7362 24.3182 20.155 23.8914 19.7522L6.11908 1.43873C5.73835 1.03729 5.23832 0.793801 4.66309 0.778569C3.46678 0.74689 2.52213 1.6428 2.49045 2.8392C2.47583 3.39137 2.6913 3.94963 3.04896 4.35045L19.3642 21.1749L2.18142 37.1122C1.80305 37.4937 0.532797 38.9899 0.517567 39.565C0.485886 40.7614 1.38179 41.706 2.5781 41.7377C3.15333 41.753 4.6917 40.5631 5.11611 40.183L23.8098 22.8351C24.2585 22.4096 24.5019 21.9095 24.5177 21.3113Z" fill="#13A53D"/>
</svg>
